<svg width="1440" height="738" viewBox="0 0 1440 738" fill="none" xmlns="http://www.w3.org/2000/svg">
<rect x="6" width="1440" height="738" fill="url(#paint0_linear_154_111)"/>
<path fill-rule="evenodd" clip-rule="evenodd" d="M591.711 47.7251C576.315 49.9105 561.756 59.997 560.362 80.5062C559.357 95.8039 559.469 95.9159 574.084 92.946C586.412 90.4243 585.742 91.0969 585.742 81.6829C585.742 73.6697 587.974 69.1309 594.054 65.9928C607.553 59.1004 617.26 77.256 617.26 82.9717C617.26 89.2478 612.797 92.5537 598.74 96.6443C587.249 100.006 583.567 104.77 583.12 116.705C583.009 120.236 582.619 123.037 582.228 123.485C580.499 125.615 586.523 127.577 592.938 127.016C612.183 125.279 611.904 125.447 610.844 118.162C610.175 113.623 610.621 112.951 615.195 111.55C626.24 108.188 632.544 101.8 635.891 90.5926C644.648 61.6781 625.404 43.0181 591.711 47.7251ZM609.729 51.0873C622.28 52.9365 633.994 69.2429 631.819 81.9631C629.81 93.7307 623.451 100.959 610.789 105.722C604.652 108.02 602.7 110.933 602.645 117.77V121.581C595.839 122.253 595.393 122.253 590.93 122.925C591.711 106.395 590.596 104.713 610.956 97.541C623.731 93.0581 626.519 82.3553 618.208 69.9153C604.876 49.9665 570.57 63.191 577.096 85.7736C577.375 86.8381 577.543 87.791 577.431 87.903C577.264 88.0708 570.012 89.6959 569.454 89.6959C569.398 89.6959 569.008 82.8036 568.673 80.4501C565.717 60.2211 587.081 47.8372 609.729 51.0873ZM588.532 133.404C578.491 137.999 578.1 150.327 587.862 153.857C607.33 160.918 624.958 149.318 613.968 136.71C610.733 132.9 594.221 130.77 588.532 133.404ZM602.812 136.766C607.274 137.439 611.179 141.025 611.179 144.387C611.179 150.607 596.007 153.689 590.54 148.59C587.862 146.068 586.97 134.357 602.812 136.766Z" fill="white"/>
<path fill-rule="evenodd" clip-rule="evenodd" d="M1302.41 548.2C1292.61 544.254 1280.62 545.238 1272.84 556.823C1267.06 565.476 1267.08 565.579 1276.69 568.799C1284.8 571.504 1284.18 571.672 1287.38 566.137C1290.1 561.426 1292.95 559.516 1297.59 559.736C1307.88 560.27 1307.42 574.242 1305.48 577.603C1303.35 581.293 1299.61 581.72 1289.94 579.35C1282.04 577.422 1278.26 578.972 1273.94 585.838C1272.68 587.876 1271.5 589.39 1271.12 589.521C1269.38 590.186 1272.26 593.386 1276.22 595.235C1288.14 600.753 1287.91 600.757 1289.76 596.113C1290.91 593.218 1291.4 592.974 1294.57 593.704C1302.21 595.48 1308.09 593.866 1313.86 588.413C1328.83 574.389 1323.84 556.879 1302.41 548.2ZM1311.88 556.298C1318.63 561.65 1319.99 575.217 1314.39 581.956C1309.22 588.193 1303.02 590.282 1293.95 588.78C1289.56 588.047 1287.42 589.096 1285.07 593.097L1283.78 595.337C1279.55 593.421 1279.28 593.269 1276.43 592.148C1282.5 582.694 1282.41 581.327 1296.83 584.027C1305.87 585.732 1311.14 580.387 1310.47 570.249C1309.4 553.99 1284.72 550.11 1280.9 565.605C1280.7 566.326 1280.48 566.943 1280.37 566.971C1280.22 567.013 1275.4 565.504 1275.07 565.315C1275.04 565.296 1277.15 561.111 1277.75 559.613C1282.88 546.715 1299.65 546.693 1311.88 556.298ZM1271.46 597.494C1263.99 596.785 1259.58 603.9 1264.12 609.292C1273.18 620.057 1287.49 619.226 1285.31 608.08C1284.7 604.741 1275.7 597.879 1271.46 597.494ZM1278.72 604.323C1281.12 606.234 1282.2 609.669 1281.06 611.646C1278.95 615.303 1268.97 611.96 1267.49 607.105C1266.77 604.713 1270.22 597.524 1278.72 604.323Z" fill="white"/>
<path d="M1314.85 72.8402C1311.26 73.953 1309.43 74.6935 1304.74 76.9227C1300.74 78.8149 1300.8 78.8042 1300.19 77.6196C1298.96 75.0952 1292.79 71.2719 1290.57 71.7107C1289.51 71.9013 1289.33 72.8762 1290.3 73.173C1292.93 74.0062 1295 75.9701 1296.54 78.3495C1297.92 80.495 1297.94 80.412 1294.51 82.2077C1290.84 84.1101 1285.42 87.4466 1282.27 89.7208L1279.86 91.4643L1279.06 88.8926C1277.21 82.7576 1274.29 79.1116 1271.65 79.6061C1270.69 79.7946 1270.74 80.1137 1272.43 83.506C1273.92 86.4727 1275.2 90.4335 1275.83 94.1077C1276.35 97.0801 1279.57 98.0637 1282.89 95.0254C1285.29 92.8242 1290.94 88.9513 1295.36 86.4904L1299.31 84.2791L1299.54 86.1046C1301.58 102.435 1280.8 114.267 1269.8 103.035C1258.57 91.5531 1268.84 68.8802 1284.18 71.2713C1287.19 71.7381 1287.54 70.7864 1284.8 69.5533C1277.72 66.3014 1265.63 72.1354 1261.97 80.5198C1255.02 96.5196 1268.11 112.324 1286.35 110.002C1297.42 108.606 1306.78 94.2782 1303.3 84.1361C1303.04 83.3917 1302.86 82.7003 1302.9 82.5618C1303.08 81.9808 1309.39 79.0708 1315.9 76.6416C1323.23 73.8902 1320.74 71.0118 1314.85 72.8402Z" fill="white"/>
<path d="M54.7596 439.225C54.1681 436.928 48.9383 438.414 32.4526 445.486C15.0067 452.983 11.4333 455.272 13.0393 457.624C15.2876 460.832 55.6206 442.964 54.7596 439.225Z" fill="white"/>
<path d="M94.2436 513.459C100.967 511.228 101.445 509.788 100.882 493.555C100.318 476.789 99.6182 473.744 96.4678 473.578C90.7542 473.301 89.4808 477.784 89.1444 498.553C88.905 513.876 89.2811 515.105 94.2436 513.459Z" fill="white"/>
<path d="M49.3209 502.646C54.1769 501.107 55.6157 499.561 59.3929 491.932C70.5113 469.26 80.2548 453.954 70.8634 457.141C67.0214 458.415 64.519 462.415 50.6304 488.499C43.0211 502.955 42.8106 504.663 49.3209 502.646Z" fill="white"/>
<defs>
<linearGradient id="paint0_linear_154_111" x1="726" y1="0" x2="726" y2="738" gradientUnits="userSpaceOnUse">
<stop stop-color="#87CEEB"/>
<stop offset="1" stop-color="#247394"/>
</linearGradient>
</defs>
</svg>
