<svg width="1440" height="425" viewBox="0 0 1440 425" fill="none" xmlns="http://www.w3.org/2000/svg">
<rect width="1440" height="425" fill="url(#paint0_linear_198_726)"/>
<path d="M424.501 311.82L423.345 307.921L424.645 306.224C429.447 299.905 420.529 290.012 413.452 293.803C412.694 294.2 411.791 294.236 410.491 293.911C408.108 293.297 400.309 291.998 398.72 291.817C393.449 291.167 394.893 293.731 397.167 293.947C402.295 294.489 402.186 294.2 400.814 295.644C398.684 297.919 400.526 306.802 403.92 310.665C406.989 314.167 414.427 316.045 416.738 313.879C421.323 309.546 420.06 329.621 415.33 335.76C400.598 354.933 369.545 336.446 375.142 311.82L375.792 308.932L378.464 310.701C383.122 313.806 385.035 312.254 381.461 308.282C375.611 301.819 377.597 293.586 383.736 298.822C385.794 300.591 388.321 300.844 389.368 299.436C392.474 295.175 394.315 296.692 394.279 301.241C394.279 303.696 393.124 305.357 388.393 309.762C384.241 313.626 384.061 314.926 387.671 314.926C390.09 314.926 397.926 305.646 398.612 301.999C399.587 296.872 392.654 292.684 388.538 295.897C387.599 296.655 387.021 296.8 386.66 296.439C386.299 296.078 386.371 295.428 387.527 294.778C388.682 294.128 390.452 293.622 390.054 292.539C389.513 291.095 385.505 292.972 384.963 293.297C384.422 293.586 382.472 294.85 380.811 294.85C375.106 294.85 372.94 296.583 373.409 300.736C373.662 303.046 373.517 303.696 372.217 306.007C362.071 323.989 375.792 346.7 397.059 347.133C418.688 347.639 430.567 332.293 424.501 311.82ZM417.207 308.065C413.307 312.398 412.73 312.579 409.516 310.701C406.953 309.185 404.858 305.249 404.425 301.097C403.992 296.728 406.23 295.572 410.058 298.172L411.936 299.472L413.813 298.244C419.193 294.67 426.27 298.028 417.207 308.065Z" fill="white"/>
<path d="M379.692 319.872C379.945 320.631 380.487 323.158 380.92 325.505C384.134 343.017 412.225 342.692 413.67 325.144C413.85 322.978 414.247 321.064 414.536 320.883C417.064 319.259 410.312 317.092 405.545 318.031C404.065 318.32 398.396 318.392 391.644 318.212C379.151 317.85 379.079 317.85 379.692 319.872ZM410.312 321.064V323.736C410.312 333.665 392.583 339.118 386.697 330.957C384.675 328.177 384.711 326.48 384.423 321.245C401.032 320.703 401.429 320.775 410.312 321.064Z" fill="white"/>
<defs>
<linearGradient id="paint0_linear_198_726" x1="720" y1="0" x2="720" y2="425" gradientUnits="userSpaceOnUse">
<stop stop-color="#F75590"/>
<stop offset="1" stop-color="#247394"/>
</linearGradient>
</defs>
</svg>
