<svg width="1440" height="425" viewBox="0 0 1440 425" fill="none" xmlns="http://www.w3.org/2000/svg">
<rect width="1440" height="425" fill="url(#paint0_linear_198_751)"/>
<path d="M1066.01 279.139C1068.2 274.693 1065.36 271.485 1062.33 275.021C1060.11 277.645 1056.98 285.116 1057.52 286.537C1058.8 289.781 1062.3 286.72 1066.01 279.139Z" fill="white"/>
<path d="M1044.26 288.104C1046.55 288.833 1047.35 287.485 1047.1 283.33C1046.55 275.13 1044.04 271.74 1039.74 273.453C1037.7 274.255 1041.7 287.303 1044.26 288.104Z" fill="white"/>
<path d="M1021.26 290.219C1026.43 294.082 1030.04 295.795 1031.86 295.139C1034.12 294.337 1033.76 293.572 1029.64 290.328C1024.39 286.137 1021.51 284.898 1018.74 285.627C1016.78 286.137 1017.4 287.303 1021.26 290.219Z" fill="white"/>
<path d="M1065.98 291.603C1064.74 292.952 1064.74 292.988 1065.69 293.681C1068.38 295.649 1071.26 294.082 1082.67 284.351C1085.73 281.727 1080.66 279.649 1077.09 282.091C1075.23 283.367 1067.44 290.036 1065.98 291.603Z" fill="white"/>
<path d="M1109.35 357.278C1108.07 356.221 1107.23 354.253 1106.87 351.447C1106.61 349.515 1102.53 317.589 1100.67 309.17C1099.14 302.172 1094.84 298.856 1091.42 298.674C1089.27 298.564 1088.03 299.986 1087.15 299.439C1084.78 297.945 1084.13 297.252 1081.8 297.471C1080.7 297.544 1078.26 298.2 1077.42 298.929C1076.88 299.366 1076.18 299.366 1074.65 298.965C1067.14 296.961 1063.83 304.104 1067.22 315.001C1069.15 321.233 1071.92 318.5 1071.12 311.174C1070.06 301.48 1070.28 300.459 1073.3 301.553C1074.94 302.136 1075.02 302.282 1074.87 304.286C1074.65 307.093 1076.62 319.921 1077.35 320.395C1079.35 321.707 1080.88 319.375 1080.23 315.912C1078.44 306.218 1079.65 300.204 1083.22 301.116C1084.31 301.407 1085.11 302.391 1085.11 303.521C1085.29 314.491 1085.4 321.817 1088.76 321.817C1090.87 321.817 1090.87 321.889 1090.4 312.377C1089.89 302.282 1091.09 301.735 1092.88 302.282C1095.46 303.084 1095.72 309.134 1095.97 310.774C1095.97 310.81 1101.73 348.64 1101.73 348.713C1102.42 357.314 1107.78 364.859 1111.54 362.453C1112.3 361.943 1110.88 358.554 1109.35 357.278Z" fill="white"/>
<path d="M1019.33 311.357C1019.33 305.489 1019.4 305.015 1020.57 303.703C1022.64 301.261 1023.3 303.484 1023.7 314.71C1023.99 322.91 1024.03 323.019 1025.78 323.529C1028.04 324.222 1028.26 323.165 1028 313.908C1027.75 305.562 1027.78 305.27 1028.88 304.177C1031.14 301.881 1031.61 302.792 1032.56 310.701C1033.1 315.511 1033.03 318.208 1032.27 322.363C1032.08 323.42 1032.27 323.748 1033.14 324.003C1035.51 324.623 1035.91 323.821 1036.6 316.896C1037.81 304.906 1036.17 301.298 1029.39 301.225C1027.38 301.188 1025.09 300.933 1024.28 300.569C1023.48 300.241 1021.66 299.986 1020.24 300.022C1018.82 300.059 1016.49 299.949 1015.1 299.767C1013.42 299.548 1012.04 299.694 1011.05 300.131C1006.86 302.063 1006.13 304.323 1001.21 330.891C1000.38 335.484 999.429 341.206 999.174 343.574C998.663 347.984 997.133 353.123 995.092 357.351C993.67 360.267 993.998 361.323 996.258 361.323C1000.3 361.323 1004.09 354.763 1005 346.126C1005.48 341.534 1006.32 339.638 1007.77 329.142C1010.54 308.915 1011.05 306.582 1013.1 304.213C1015.9 300.97 1015.65 302.027 1016.01 320.905C1016.01 321.707 1016.74 322.327 1017.54 322.254C1019 322.145 1019.33 320.796 1019.33 311.357Z" fill="white"/>
<path d="M1087.3 361.615C1085 357.387 1084.82 357.242 1080.74 356.804C1075.78 356.258 1071.95 354.326 1070.31 351.556C1066.71 345.397 1061.64 329.033 1062.22 325.425C1063.03 320.359 1064.7 320.723 1067.43 326.482C1069.59 331.001 1071.01 332.604 1076.07 336.395C1078.33 338.071 1079.72 339.566 1080.63 341.351C1081.76 343.538 1082.16 343.903 1083.47 343.903C1087.95 343.903 1082.6 334.172 1077.13 332.422C1074.8 331.693 1074.07 331.074 1074.07 329.871C1074.07 323.857 1065.28 317.334 1060.62 319.885C1056.61 322.108 1056.28 325.461 1059.05 335.556C1064.37 354.909 1067.36 358.845 1077.35 359.72C1081.25 360.084 1082.2 360.74 1084.16 364.421C1086.86 369.487 1089.96 366.025 1089.34 365.223C1089.12 364.895 1088.21 363.292 1087.3 361.615Z" fill="white"/>
<path d="M1038.86 322.254C1036.2 323.493 1033.32 326.555 1032.08 329.47C1031.17 331.621 1030.92 331.839 1028.88 332.167C1024.43 332.86 1020.57 336.176 1019.98 339.712C1019.47 342.846 1022.68 344.449 1023.85 341.607C1025.38 337.926 1028.4 335.083 1031.72 334.245C1033.76 333.734 1037.84 329.653 1041.3 324.769C1043.49 321.671 1044.95 325.862 1043.42 330.746C1038.61 345.834 1032.38 354.144 1025.2 354.946C1022.17 355.31 1021.51 355.93 1018.93 361.069C1017.21 364.422 1017.18 364.604 1018.09 365.26C1020.28 366.863 1022.35 365.333 1023.77 361.105C1024.76 358.189 1024.87 358.044 1027.09 357.497C1035.47 355.347 1039.63 350.39 1045.64 335.484C1050.23 324.113 1047.28 318.354 1038.86 322.254Z" fill="white"/>
<defs>
<linearGradient id="paint0_linear_198_751" x1="720" y1="0" x2="720" y2="425" gradientUnits="userSpaceOnUse">
<stop stop-color="#267595"/>
<stop offset="1" stop-color="#F75590"/>
</linearGradient>
</defs>
</svg>
