<svg width="1440" height="425" viewBox="0 0 1440 425" fill="none" xmlns="http://www.w3.org/2000/svg">
<rect width="1440" height="425" fill="url(#paint0_linear_198_782)"/>
<path fill-rule="evenodd" clip-rule="evenodd" d="M1130.06 60.3807C1130.37 61.3141 1130.61 62.2129 1130.61 62.3858C1130.61 62.5241 1129.43 62.6624 1127.96 62.6624C1125.73 62.6624 1120.26 63.2846 1117.54 63.8723C1116.6 64.0797 1114.27 65.9119 1113.5 67.0873C1112.24 68.9541 1113.53 75.1767 1115.38 76.1447C1115.97 76.4558 1116.01 76.5595 1115.52 77.4928C1114.27 79.8782 1115.17 83.4735 1117.75 86.2391C1119.01 87.5873 1119.18 87.9676 1119.18 89.3849C1119.18 91.5283 1120.16 93.2914 1122.42 95.331C1123.54 96.3335 1124.41 97.4397 1124.55 98.0274C1126.01 103.973 1135.28 106.117 1149.99 103.904C1157.91 102.729 1158.01 102.694 1158.71 103.386C1159.82 104.423 1161.18 104.803 1163.69 104.803C1165.78 104.803 1166.1 104.907 1166.72 105.702C1167.63 106.843 1170 107.258 1173 106.843C1174.15 106.67 1175.72 106.532 1176.52 106.532C1178.75 106.532 1179.52 105.771 1178.44 104.665C1177.67 103.87 1177.32 103.766 1174.95 103.766C1170.98 103.766 1171.25 104.941 1170.38 85.0982C1170.17 80.6387 1169.93 74.831 1169.79 72.2037C1169.51 66.3268 1169.13 66.707 1175.33 66.9836C1180.7 67.2256 1181.75 66.9836 1180.56 65.6699C1179.1 64.0451 1174.5 63.0081 1168.88 63.0081H1167.7C1167.21 63.0081 1166.76 63.2155 1166.44 63.5612C1166.13 63.9069 1165.96 64.3563 1165.96 64.8402C1165.99 65.6008 1166.03 66.2576 1166.03 66.1539L1161.84 66.223C1157.73 66.2922 1157.66 66.2922 1157.7 67.0527C1157.73 68.0898 1157.42 68.0552 1155.01 66.6033C1152.82 65.2896 1151.88 63.976 1147.03 55.4718C1145.39 52.5679 1144 50.5629 1142.74 49.2146C1137.76 43.8217 1126.33 48.5578 1130.06 60.3807ZM1138.18 49.422C1139.19 50.2172 1140.3 52.4988 1141.49 56.2323C1143.93 63.9068 1149.4 69.4381 1156.96 71.858L1158.01 72.2037C1158.08 74.3816 1158.43 91.8048 1158.53 98.1312L1155.12 98.3386C1151.63 98.5806 1141.94 99.9634 1138.87 100.689C1134.24 101.761 1128.91 99.3065 1128.91 96.1261C1128.91 95.573 1128.73 95.1235 1128.56 95.1235C1126.26 95.1235 1122.74 89.2467 1124.06 87.6564C1124.27 87.4144 1123.85 86.8267 1122.98 85.9625C1120.75 83.8537 1120.44 82.9895 1120.68 79.4979C1120.89 76.594 1120.85 76.4903 1120.05 75.9372C1117.72 74.4161 1117.26 69.6109 1119.32 68.2972C1119.84 67.9515 1122.49 67.5713 1127.23 67.1219C1136.85 66.223 1136.26 66.9144 1134.73 58.4448C1133.4 51.6691 1135.18 47.0367 1138.18 49.422ZM1166.27 101C1166.24 101 1163.1 101 1163.2 101L1161.91 69.8875C1161.98 69.8875 1165.5 69.8875 1165.36 69.8875C1165.82 86.7922 1165.22 80.0856 1166.27 101Z" fill="white"/>
<defs>
<linearGradient id="paint0_linear_198_782" x1="720" y1="0" x2="720" y2="425" gradientUnits="userSpaceOnUse">
<stop stop-color="#F75590"/>
<stop offset="1" stop-color="#247394"/>
</linearGradient>
</defs>
</svg>
