<svg width="1434" height="425" viewBox="0 0 1434 425" fill="none" xmlns="http://www.w3.org/2000/svg">
<rect width="1440" height="425" fill="url(#paint0_linear_154_108)"/>
<path fill-rule="evenodd" clip-rule="evenodd" d="M1179.99 270.264C1178.11 272.704 1178.29 275.379 1180.52 278.266C1183.51 282.125 1183.54 283.978 1180.62 282.716C1170.09 278.225 1153.04 284.582 1156.89 291.584C1157.29 292.339 1157.26 292.355 1155.31 293.41C1146.7 298.004 1153.37 313.912 1165.27 317.143C1166.08 317.362 1166.86 319.261 1167.8 323.297C1168.31 325.548 1168.68 325.765 1170.96 325.435C1173.04 325.139 1173.03 324.276 1170.84 316.445C1170.52 315.269 1169.61 314.235 1168.33 313.578C1166.41 312.605 1164.22 311.571 1162.65 310.934C1157.3 308.665 1154.46 302.919 1156.12 297.654C1157.64 292.841 1163.59 292.916 1162.79 297.75C1161.68 304.387 1170.49 306.928 1175.99 301.558C1180.93 296.766 1175.21 289.844 1167.96 291.862C1164.13 292.933 1159.62 290.107 1160.94 287.484C1164.2 280.93 1177.65 283.459 1183.77 291.794C1186.96 296.134 1190.58 291.398 1188.11 288.578C1187.47 287.849 1187.36 287.32 1187.55 285.931C1187.96 282.971 1187.21 280.501 1184.71 276.897C1182.4 273.568 1185.29 268.192 1188.65 269.559C1190.78 270.419 1195.71 278.499 1195.89 281.483C1196.06 283.889 1195.04 290.58 1194.24 292.191C1193.2 294.28 1194.2 295.059 1196.77 294.115C1198.03 293.639 1198.17 293.495 1199.08 290.956C1201.35 284.629 1201.54 282.029 1199.96 278.104C1198.83 275.314 1200.6 275.117 1202.74 277.498C1207.08 282.394 1205.55 291.682 1201.04 297.11C1199.97 298.415 1200.36 299.004 1202.3 299.059C1205.19 299.125 1207.59 296.123 1208.82 290.919C1209.58 287.661 1209.66 287.549 1210.07 288.471C1212.52 293.731 1211.03 299.985 1206.22 304.633C1203.04 307.708 1199.91 310.378 1197.37 312.169C1197.06 312.474 1194.63 313.685 1194.1 316.401C1193.32 320.396 1199.47 319.905 1199.31 317.15C1199.17 315.077 1199.4 314.741 1201.6 313.517C1203.79 312.332 1203.89 312.244 1208.89 307.522C1213.15 303.514 1215.22 300.628 1215.96 297.696C1217.49 291.489 1214.85 285.154 1210.17 283.946C1209.13 283.674 1209.11 283.651 1208.68 281.7C1207.85 277.781 1204.01 274.107 1199.73 273.164C1198.19 272.819 1197.94 272.64 1196.16 270.762C1192.04 266.267 1183.27 265.991 1179.99 270.264ZM1168.74 293.555C1172.1 293.195 1175.1 299.09 1172.69 301.228C1171.86 301.991 1165.73 302.608 1165.9 296.863C1165.97 294.224 1166.31 293.8 1168.74 293.555Z" fill="white"/>
<defs>
<linearGradient id="paint0_linear_154_108" x1="720" y1="0" x2="720" y2="425" gradientUnits="userSpaceOnUse">
<stop stop-color="#267595"/>
<stop offset="1" stop-color="#F75590"/>
</linearGradient>
</defs>
</svg>
