<svg width="86" height="92" viewBox="0 0 86 92" fill="none" xmlns="http://www.w3.org/2000/svg">
<path d="M49 4H41L3.5 40.5L5 54L4.5 65.5L4 79L5.5 82.5L12.5 74L45.5 39.5L80.5 7L82 1.5L75 1L65.5 2.5L57 4H49Z" fill="#F75590"/>
<path fill-rule="evenodd" clip-rule="evenodd" d="M75.5214 0.234858C56.7631 2.60463 64.5291 3.03273 48.683 3.34679C42.6587 3.461 39.3467 3.66109 38.9184 3.86095C37.3481 4.66039 12.8511 28.0723 3.08647 39.2359C2.37269 40.0639 1.97288 41.1206 2.00143 42.2056C2.17274 51.2278 3.6575 48.9434 3.22923 71.2992C2.97227 85.2608 3.11497 81.4921 6.45548 86.4315C7.22637 87.5735 11.1664 94.0547 13.422 91.1995C13.9074 90.6 14.193 84.376 13.6505 79.0369C13.4221 76.5815 14.2215 74.1543 15.906 72.3556C27.8119 59.4504 70.3821 14.0536 76.3494 14.0536C82.2595 14.0536 85.857 13.6539 85.1432 8.40045C85.0004 7.3726 84.8006 5.94497 84.5722 3.77506C84.2581 0.577304 81.4886 -0.536031 75.5214 0.234858ZM7.51194 78.9224C5.39914 81.8918 5.31348 81.7776 5.51334 75.3535C5.599 72.327 5.82735 68.2156 6.02721 66.217C6.91231 56.7951 4.39975 49.4291 4.71382 43.4904L4.85658 40.778C14.5355 30.8992 33.8934 12.0552 42.4017 4.94584C50.1963 4.91729 58.8473 5.05988 63.5869 3.91782C67.8125 2.88997 74.8361 1.89084 78.0053 1.80519H79.0617C79.7755 1.80519 80.3751 2.31906 80.4608 3.03284C80.4893 3.34691 18.3329 63.6189 7.51194 78.9224Z" fill="black"/>
<path d="M12.5639 40.8613L26.6155 45.7489C27.1925 45.9412 27.5772 46.1335 27.7695 46.3259C28.1768 46.7332 28.2164 47.4289 27.8883 48.4132C27.696 48.9902 27.4867 49.3919 27.2604 49.6181C27.0454 49.8331 26.8135 49.9632 26.5646 50.0085C26.327 50.0424 26.1177 50.0368 25.9367 49.9915C25.767 49.9349 25.5124 49.8501 25.173 49.7369L22.4577 48.7866L17.7569 53.4874L18.7072 56.2027C18.8204 56.5421 18.8939 56.7967 18.9278 56.9664C18.9731 57.1248 18.9787 57.3341 18.9448 57.5943C18.9109 57.8319 18.7808 58.0638 18.5545 58.2901C18.3395 58.5051 17.9435 58.7087 17.3665 58.901C16.3936 59.2405 15.7034 59.2065 15.2961 58.7992C15.1038 58.6069 14.9115 58.2222 14.7191 57.6452L9.81464 43.5766C9.67888 43.192 9.65625 42.796 9.74676 42.3887C9.84858 41.9701 10.0409 41.6194 10.3238 41.3365C10.9347 40.7256 11.6814 40.5672 12.5639 40.8613ZM15.2622 46.3089L16.4671 49.7539L18.7242 47.4968L15.2622 46.3089ZM31.2595 40.2564L35.8755 35.6404C36.2488 35.267 36.5656 35.0407 36.8258 34.9615C37.0747 34.871 37.318 34.888 37.5555 35.0125C37.7931 35.1369 38.0647 35.3519 38.3701 35.6573C38.6643 35.9515 38.8736 36.2174 38.998 36.455C39.1225 36.6925 39.1508 36.9132 39.0829 37.1168C38.9811 37.4449 38.7435 37.7956 38.3701 38.169L32.2607 44.2784C31.4688 45.0703 30.79 45.3192 30.2243 45.0251C29.9754 44.912 29.6529 44.6574 29.2569 44.2614L19.8213 34.8258C19.5611 34.5656 19.3744 34.3676 19.2613 34.2318C19.1481 34.0734 19.052 33.8641 18.9728 33.6039C18.8257 33.14 19.1142 32.5461 19.8383 31.822C20.6302 31.03 21.3091 30.7698 21.8747 31.0413C22.1236 31.1771 22.4461 31.443 22.8421 31.839L31.2595 40.2564ZM41.5761 28.9554L46.803 23.7285C47.0633 23.4683 47.2669 23.2873 47.414 23.1854C47.5611 23.061 47.7647 22.9592 48.0249 22.88C48.4888 22.7329 49.0828 23.0214 49.8068 23.7455C50.5988 24.5374 50.8534 25.2106 50.5705 25.765C50.4461 26.0252 50.1858 26.3533 49.7899 26.7493L43.0695 33.4696C42.2776 34.2616 41.5987 34.5105 41.0331 34.2163C40.7842 34.1032 40.4617 33.8486 40.0657 33.4526L30.6301 24.017C30.0531 23.44 29.7703 22.9422 29.7816 22.5236C29.7816 22.0937 30.0814 21.5789 30.681 20.9793L37.3674 14.2929C37.6276 14.0326 37.8313 13.8516 37.9784 13.7498C38.1254 13.6253 38.3291 13.5235 38.5893 13.4443C39.0532 13.2973 39.6471 13.5858 40.3712 14.3098C41.1632 15.1018 41.4177 15.775 41.1349 16.3293C41.0104 16.5895 40.7502 16.9176 40.3542 17.3136L35.1443 22.5236L36.8583 24.2376L40.2185 20.8774C40.4787 20.6172 40.6823 20.4362 40.8294 20.3344C40.9765 20.2099 41.1801 20.1081 41.4403 20.0289C41.9042 19.8818 42.4982 20.1703 43.2223 20.8944C44.0142 21.6864 44.2631 22.3652 43.969 22.9309C43.8445 23.1911 43.5843 23.5192 43.1883 23.9152L39.8621 27.2414L41.5761 28.9554ZM50.8369 20.5432C50.7237 20.2038 50.7407 19.8813 50.8878 19.5759C51.0462 19.2591 51.3686 18.8575 51.8551 18.371C52.3529 17.8732 52.8168 17.6243 53.2467 17.6243C53.6879 17.6129 54.1405 17.8392 54.6043 18.3031L54.8759 18.5746C55.1474 18.8461 55.3397 19.0611 55.4529 19.2195C55.566 19.3553 55.6678 19.5589 55.7583 19.8304C55.9054 20.3396 55.6339 20.9392 54.9437 21.6293C54.2649 22.3081 53.7049 22.6532 53.2637 22.6645C52.8224 22.6532 52.285 22.3308 51.6515 21.6972C51.2102 21.256 50.9387 20.8713 50.8369 20.5432ZM51.1254 16.2836C50.967 16.5551 50.7068 16.8719 50.3447 17.2339C49.9827 17.596 49.6659 17.8562 49.3944 18.0146C49.1228 18.173 48.8683 18.2239 48.6307 18.1673C48.4044 18.0994 48.2234 18.0202 48.0876 17.9297C47.9632 17.8279 47.7822 17.6582 47.5446 17.4206L42.1649 12.0409C41.9273 11.8034 41.7576 11.6223 41.6558 11.4979C41.554 11.3508 41.4748 11.1585 41.4182 10.9209C41.3616 10.6833 41.4125 10.4287 41.5709 10.1572C41.718 9.87437 41.9726 9.55193 42.3346 9.18989C42.6967 8.82785 43.0191 8.57329 43.3019 8.42622C43.5735 8.26783 43.828 8.22823 44.0656 8.30742C44.3032 8.36399 44.4899 8.44884 44.6256 8.56198C44.7614 8.65249 44.9481 8.81654 45.1857 9.05413L50.5653 14.4338C50.8029 14.6714 50.967 14.8581 51.0575 14.9938C51.1593 15.1183 51.2385 15.2993 51.2951 15.5369C51.3403 15.7632 51.2838 16.0121 51.1254 16.2836Z" fill="white"/>
</svg>
