<svg width="512" height="512" viewBox="0 0 512 512" fill="none" xmlns="http://www.w3.org/2000/svg">
<path d="M0 0H181V512H0V0Z" fill="#87CEEB"/>
<path d="M181 0H512V512H181V0Z" fill="#F75590"/>
<path d="M85 132.75C85 125.85 85.15 120.75 85.45 117.45C86.05 113.85 87.55 109.8 89.95 105.3C94.15 97.2 105.85 93.15 125.05 93.15C146.05 93.15 158.5 98.7 162.4 109.8C163.9 114.9 164.65 122.7 164.65 133.2V383.4C164.65 390.6 164.35 395.85 163.75 399.15C163.45 402.45 162.1 406.35 159.7 410.85C155.5 418.95 143.8 423 124.6 423C103.6 423 91.3 417.3 87.7 405.9C85.9 401.1 85 393.45 85 382.95V132.75Z" fill="black"/>
<path d="M205.526 376.65C197.726 367.05 193.826 358.5 193.826 351C193.826 343.2 200.276 333 213.176 320.4C220.676 313.2 228.626 309.6 237.026 309.6C245.426 309.6 257.126 317.1 272.126 332.1C276.326 337.2 282.326 342.15 290.126 346.95C297.926 351.45 305.126 353.7 311.726 353.7C339.626 353.7 353.576 342.3 353.576 319.5C353.576 312.6 349.676 306.9 341.876 302.4C334.376 297.6 324.926 294.15 313.526 292.05C302.126 289.95 289.826 286.65 276.626 282.15C263.426 277.35 251.126 271.8 239.726 265.5C228.326 259.2 218.726 249.3 210.926 235.8C203.426 222 199.676 205.5 199.676 186.3C199.676 159.9 209.426 136.95 228.926 117.45C248.726 97.65 275.576 87.75 309.476 87.75C327.476 87.75 343.826 90.15 358.526 94.95C373.526 99.45 383.876 104.1 389.576 108.9L400.826 117.45C410.126 126.15 414.776 133.5 414.776 139.5C414.776 145.5 411.176 153.75 403.976 164.25C393.776 179.25 383.276 186.75 372.476 186.75C366.176 186.75 358.376 183.75 349.076 177.75C348.176 177.15 346.376 175.65 343.676 173.25C341.276 170.85 339.026 168.9 336.926 167.4C330.626 163.5 322.526 161.55 312.626 161.55C303.026 161.55 294.926 163.95 288.326 168.75C282.026 173.25 278.876 179.7 278.876 188.1C278.876 196.2 282.626 202.8 290.126 207.9C297.926 213 307.526 216.45 318.926 218.25C330.326 220.05 342.776 222.9 356.276 226.8C369.776 230.4 382.226 234.9 393.626 240.3C405.026 245.7 414.476 255.15 421.976 268.65C429.776 281.85 433.676 298.2 433.676 317.7C433.676 337.2 429.776 354.45 421.976 369.45C414.176 384.15 403.976 395.55 391.376 403.65C367.076 419.55 341.126 427.5 313.526 427.5C299.426 427.5 286.076 425.85 273.476 422.55C260.876 418.95 250.676 414.6 242.876 409.5C226.976 399.9 215.876 390.6 209.576 381.6L205.526 376.65Z" fill="black"/>
</svg>
