<svg width="361" height="617" viewBox="0 0 361 617" fill="none" xmlns="http://www.w3.org/2000/svg">
<g filter="url(#filter0_d_394_170)">
<rect width="214.544" height="28.438" transform="matrix(-1 0 0 1 309.038 169.928)" fill="white"/>
<ellipse cx="43.653" cy="45.4854" rx="43.653" ry="45.4854" transform="matrix(-1 0 0 1 137.078 107.395)" fill="white"/>
<ellipse cx="61" cy="49" rx="61" ry="49" transform="matrix(-1 0 0 1 345 11)" fill="white"/>
<ellipse cx="64.5" cy="40.4602" rx="64.5" ry="40.4602" transform="matrix(-0.121718 -0.992565 -0.992565 0.121718 283.021 128.041)" fill="white"/>
<ellipse cx="44.6108" cy="39.9741" rx="44.6108" ry="39.9741" transform="matrix(-1 0 0 1 186.222 0)" fill="white"/>
<ellipse cx="44.6108" cy="39.9741" rx="44.6108" ry="39.9741" transform="matrix(-1 0 0 1 118.222 7)" fill="white"/>
<ellipse cx="63.4681" cy="78.5621" rx="63.4681" ry="78.5621" transform="matrix(-1 0 0 1 136.937 30)" fill="white"/>
<ellipse cx="105.541" cy="70.819" rx="105.541" ry="70.819" transform="matrix(-1 0 0 1 291.082 58)" fill="white"/>
<ellipse cx="105.541" cy="70.819" rx="105.541" ry="70.819" transform="matrix(-1 0 0 1 291.082 124)" fill="white"/>
<ellipse cx="105.541" cy="70.819" rx="105.541" ry="70.819" transform="matrix(-1 0 0 1 353.082 124)" fill="white"/>
<ellipse cx="36.1012" cy="33.267" rx="36.1012" ry="33.267" transform="matrix(-1 0 0 1 218.202 7)" fill="white"/>
<ellipse cx="36.1012" cy="33.267" rx="36.1012" ry="33.267" transform="matrix(-1 0 0 1 82.2021 146)" fill="white"/>
<ellipse cx="43.0636" cy="37.5596" rx="43.0636" ry="37.5596" transform="matrix(-1 0 0 1 290.692 86.6677)" fill="white"/>
<ellipse cx="47" cy="64.5" rx="47" ry="64.5" transform="matrix(-1 0 0 1 357 69.0001)" fill="white"/>
</g>
<g filter="url(#filter1_d_394_170)">
<rect x="308.016" y="460.821" width="214.544" height="28.462" transform="rotate(180 308.016 460.821)" fill="white"/>
<ellipse cx="58.5" cy="463.5" rx="54.5" ry="53.5" transform="rotate(180 58.5 463.5)" fill="white"/>
<ellipse cx="66.5" cy="516.5" rx="54.5" ry="53.5" transform="rotate(180 66.5 516.5)" fill="white"/>
<ellipse cx="297" cy="542" rx="50" ry="42" transform="rotate(180 297 542)" fill="white"/>
<ellipse cx="147.611" cy="568.008" rx="44.6108" ry="40.0079" transform="rotate(180 147.611 568.008)" fill="white"/>
<ellipse cx="95.5" cy="557" rx="59.5" ry="40" transform="rotate(180 95.5 557)" fill="white"/>
<ellipse cx="50" cy="396" rx="46" ry="62" transform="rotate(180 50 396)" fill="white"/>
<ellipse cx="193.5" cy="493.5" rx="114.5" ry="75.5" transform="rotate(180 193.5 493.5)" fill="white"/>
<ellipse cx="201.5" cy="569" rx="30.5" ry="28" transform="rotate(180 201.5 569)" fill="white"/>
<ellipse cx="258" cy="569" rx="35" ry="32" transform="rotate(180 258 569)" fill="white"/>
<ellipse cx="246.607" cy="506.56" rx="43.0636" ry="37.5914" transform="rotate(180 246.607 506.56)" fill="white"/>
<ellipse cx="309.01" cy="487.102" rx="46.9685" ry="54.7439" transform="rotate(180 309.01 487.102)" fill="white"/>
<ellipse cx="301.5" cy="408.5" rx="53.5" ry="54.5" transform="rotate(180 301.5 408.5)" fill="white"/>
<ellipse cx="195" cy="417.5" rx="115" ry="54.5" transform="rotate(180 195 417.5)" fill="white"/>
</g>
<rect x="309.016" y="293.821" width="214.544" height="28.462" transform="rotate(180 309.016 293.821)" fill="white"/>
<ellipse cx="59.5" cy="296.5" rx="54.5" ry="53.5" transform="rotate(180 59.5 296.5)" fill="white"/>
<ellipse cx="61.5" cy="349.5" rx="54.5" ry="53.5" transform="rotate(180 61.5 349.5)" fill="white"/>
<ellipse cx="305" cy="374" rx="50" ry="42" transform="rotate(180 305 374)" fill="white"/>
<ellipse cx="148.611" cy="401.008" rx="44.6108" ry="40.0079" transform="rotate(180 148.611 401.008)" fill="white"/>
<ellipse cx="96.5" cy="390" rx="59.5" ry="40" transform="rotate(180 96.5 390)" fill="white"/>
<ellipse cx="51" cy="229" rx="46" ry="62" transform="rotate(180 51 229)" fill="white"/>
<ellipse cx="194.5" cy="326.5" rx="114.5" ry="75.5" transform="rotate(180 194.5 326.5)" fill="white"/>
<ellipse cx="202.5" cy="402" rx="30.5" ry="28" transform="rotate(180 202.5 402)" fill="white"/>
<ellipse cx="259" cy="402" rx="35" ry="32" transform="rotate(180 259 402)" fill="white"/>
<ellipse cx="247.607" cy="339.56" rx="43.0636" ry="37.5914" transform="rotate(180 247.607 339.56)" fill="white"/>
<ellipse cx="310.01" cy="320.102" rx="46.9685" ry="54.7439" transform="rotate(180 310.01 320.102)" fill="white"/>
<ellipse cx="302.5" cy="241.5" rx="53.5" ry="54.5" transform="rotate(180 302.5 241.5)" fill="white"/>
<ellipse cx="196" cy="250.5" rx="115" ry="54.5" transform="rotate(180 196 250.5)" fill="white"/>
<defs>
<filter id="filter0_d_394_170" x="6" y="0" width="355" height="273.638" filterUnits="userSpaceOnUse" color-interpolation-filters="sRGB">
<feFlood flood-opacity="0" result="BackgroundImageFix"/>
<feColorMatrix in="SourceAlpha" type="matrix" values="0 0 0 0 0 0 0 0 0 0 0 0 0 0 0 0 0 0 127 0" result="hardAlpha"/>
<feOffset dy="4"/>
<feGaussianBlur stdDeviation="2"/>
<feComposite in2="hardAlpha" operator="out"/>
<feColorMatrix type="matrix" values="0 0 0 0 0 0 0 0 0 0 0 0 0 0 0 0 0 0 0.25 0"/>
<feBlend mode="normal" in2="BackgroundImageFix" result="effect1_dropShadow_394_170"/>
<feBlend mode="normal" in="SourceGraphic" in2="effect1_dropShadow_394_170" result="shape"/>
</filter>
<filter id="filter1_d_394_170" x="0" y="334" width="359.979" height="282.016" filterUnits="userSpaceOnUse" color-interpolation-filters="sRGB">
<feFlood flood-opacity="0" result="BackgroundImageFix"/>
<feColorMatrix in="SourceAlpha" type="matrix" values="0 0 0 0 0 0 0 0 0 0 0 0 0 0 0 0 0 0 127 0" result="hardAlpha"/>
<feOffset dy="4"/>
<feGaussianBlur stdDeviation="2"/>
<feComposite in2="hardAlpha" operator="out"/>
<feColorMatrix type="matrix" values="0 0 0 0 0 0 0 0 0 0 0 0 0 0 0 0 0 0 0.25 0"/>
<feBlend mode="normal" in2="BackgroundImageFix" result="effect1_dropShadow_394_170"/>
<feBlend mode="normal" in="SourceGraphic" in2="effect1_dropShadow_394_170" result="shape"/>
</filter>
</defs>
</svg>
