<svg width="361" height="716" viewBox="0 0 361 716" fill="none" xmlns="http://www.w3.org/2000/svg">
<g filter="url(#filter0_d_394_170)">
<rect width="214.544" height="28.438" transform="matrix(-1 0 0 1 309.038 169.928)" fill="white"/>
<ellipse cx="43.653" cy="45.4854" rx="43.653" ry="45.4854" transform="matrix(-1 0 0 1 137.078 107.395)" fill="white"/>
<ellipse cx="61" cy="49" rx="61" ry="49" transform="matrix(-1 0 0 1 345 11)" fill="white"/>
<ellipse cx="64.5" cy="40.4602" rx="64.5" ry="40.4602" transform="matrix(-0.121718 -0.992565 -0.992565 0.121718 283.021 128.041)" fill="white"/>
<ellipse cx="44.6108" cy="39.9741" rx="44.6108" ry="39.9741" transform="matrix(-1 0 0 1 186.222 0)" fill="white"/>
<ellipse cx="44.6108" cy="39.9741" rx="44.6108" ry="39.9741" transform="matrix(-1 0 0 1 118.222 7)" fill="white"/>
<ellipse cx="63.5" cy="68.5" rx="63.5" ry="68.5" transform="matrix(-1 0 0 1 137 47)" fill="white"/>
<ellipse cx="105.541" cy="70.819" rx="105.541" ry="70.819" transform="matrix(-1 0 0 1 291.082 58)" fill="white"/>
<ellipse cx="105.541" cy="70.819" rx="105.541" ry="70.819" transform="matrix(-1 0 0 1 291.082 124)" fill="white"/>
<ellipse cx="105.541" cy="70.819" rx="105.541" ry="70.819" transform="matrix(-1 0 0 1 353.082 124)" fill="white"/>
<ellipse cx="36.1012" cy="33.267" rx="36.1012" ry="33.267" transform="matrix(-1 0 0 1 218.202 7)" fill="white"/>
<ellipse cx="36.1012" cy="33.267" rx="36.1012" ry="33.267" transform="matrix(-1 0 0 1 82.2021 146)" fill="white"/>
<ellipse cx="43.0636" cy="37.5596" rx="43.0636" ry="37.5596" transform="matrix(-1 0 0 1 290.692 86.6677)" fill="white"/>
<ellipse cx="47" cy="64.5" rx="47" ry="64.5" transform="matrix(-1 0 0 1 357 69.0001)" fill="white"/>
</g>
<g filter="url(#filter1_d_394_170)">
<rect x="308.016" y="559.821" width="214.544" height="28.462" transform="rotate(180 308.016 559.821)" fill="white"/>
<ellipse cx="58.5" cy="562.5" rx="54.5" ry="53.5" transform="rotate(180 58.5 562.5)" fill="white"/>
<ellipse cx="66.5" cy="615.5" rx="54.5" ry="53.5" transform="rotate(180 66.5 615.5)" fill="white"/>
<ellipse cx="297" cy="641" rx="50" ry="42" transform="rotate(180 297 641)" fill="white"/>
<ellipse cx="147.611" cy="667.008" rx="44.6108" ry="40.0079" transform="rotate(180 147.611 667.008)" fill="white"/>
<ellipse cx="95.5" cy="656" rx="59.5" ry="40" transform="rotate(180 95.5 656)" fill="white"/>
<ellipse cx="50" cy="495" rx="46" ry="62" transform="rotate(180 50 495)" fill="white"/>
<ellipse cx="193.5" cy="592.5" rx="114.5" ry="75.5" transform="rotate(180 193.5 592.5)" fill="white"/>
<ellipse cx="201.5" cy="668" rx="30.5" ry="28" transform="rotate(180 201.5 668)" fill="white"/>
<ellipse cx="258" cy="668" rx="35" ry="32" transform="rotate(180 258 668)" fill="white"/>
<ellipse cx="246.607" cy="605.56" rx="43.0636" ry="37.5914" transform="rotate(180 246.607 605.56)" fill="white"/>
<ellipse cx="309.01" cy="586.102" rx="46.9685" ry="54.7439" transform="rotate(180 309.01 586.102)" fill="white"/>
<ellipse cx="301.5" cy="507.5" rx="53.5" ry="54.5" transform="rotate(180 301.5 507.5)" fill="white"/>
<ellipse cx="195" cy="516.5" rx="115" ry="54.5" transform="rotate(180 195 516.5)" fill="white"/>
</g>
<rect x="309.016" y="392.821" width="214.544" height="28.462" transform="rotate(180 309.016 392.821)" fill="white"/>
<ellipse cx="59.5" cy="395.5" rx="54.5" ry="53.5" transform="rotate(180 59.5 395.5)" fill="white"/>
<ellipse cx="61.5" cy="448.5" rx="54.5" ry="53.5" transform="rotate(180 61.5 448.5)" fill="white"/>
<ellipse cx="305" cy="473" rx="50" ry="42" transform="rotate(180 305 473)" fill="white"/>
<ellipse cx="148.611" cy="500.008" rx="44.6108" ry="40.0079" transform="rotate(180 148.611 500.008)" fill="white"/>
<ellipse cx="96.5" cy="489" rx="59.5" ry="40" transform="rotate(180 96.5 489)" fill="white"/>
<ellipse cx="51" cy="328" rx="46" ry="62" transform="rotate(180 51 328)" fill="white"/>
<ellipse cx="194.5" cy="425.5" rx="114.5" ry="75.5" transform="rotate(180 194.5 425.5)" fill="white"/>
<ellipse cx="202.5" cy="501" rx="30.5" ry="28" transform="rotate(180 202.5 501)" fill="white"/>
<ellipse cx="259" cy="501" rx="35" ry="32" transform="rotate(180 259 501)" fill="white"/>
<ellipse cx="247.607" cy="438.56" rx="43.0636" ry="37.5914" transform="rotate(180 247.607 438.56)" fill="white"/>
<ellipse cx="310.01" cy="419.102" rx="46.9685" ry="54.7439" transform="rotate(180 310.01 419.102)" fill="white"/>
<ellipse cx="302.5" cy="340.5" rx="53.5" ry="54.5" transform="rotate(180 302.5 340.5)" fill="white"/>
<ellipse cx="196" cy="349.5" rx="115" ry="54.5" transform="rotate(180 196 349.5)" fill="white"/>
<rect x="309.016" y="213.821" width="214.544" height="28.462" transform="rotate(180 309.016 213.821)" fill="white"/>
<ellipse cx="59.5" cy="216.5" rx="54.5" ry="53.5" transform="rotate(180 59.5 216.5)" fill="white"/>
<ellipse cx="61.5" cy="269.5" rx="54.5" ry="53.5" transform="rotate(180 61.5 269.5)" fill="white"/>
<ellipse cx="305" cy="294" rx="50" ry="42" transform="rotate(180 305 294)" fill="white"/>
<ellipse cx="148.611" cy="321.008" rx="44.6108" ry="40.0079" transform="rotate(180 148.611 321.008)" fill="white"/>
<ellipse cx="96.5" cy="310" rx="59.5" ry="40" transform="rotate(180 96.5 310)" fill="white"/>
<ellipse cx="51" cy="149" rx="46" ry="62" transform="rotate(180 51 149)" fill="white"/>
<ellipse cx="194.5" cy="246.5" rx="114.5" ry="75.5" transform="rotate(180 194.5 246.5)" fill="white"/>
<ellipse cx="202.5" cy="322" rx="30.5" ry="28" transform="rotate(180 202.5 322)" fill="white"/>
<ellipse cx="259" cy="322" rx="35" ry="32" transform="rotate(180 259 322)" fill="white"/>
<ellipse cx="247.607" cy="259.56" rx="43.0636" ry="37.5914" transform="rotate(180 247.607 259.56)" fill="white"/>
<ellipse cx="299.5" cy="249.5" rx="53.5" ry="54.5" transform="rotate(180 299.5 249.5)" fill="white"/>
<ellipse cx="196" cy="170.5" rx="115" ry="54.5" transform="rotate(180 196 170.5)" fill="white"/>
<defs>
<filter id="filter0_d_394_170" x="6" y="0" width="355" height="273.638" filterUnits="userSpaceOnUse" color-interpolation-filters="sRGB">
<feFlood flood-opacity="0" result="BackgroundImageFix"/>
<feColorMatrix in="SourceAlpha" type="matrix" values="0 0 0 0 0 0 0 0 0 0 0 0 0 0 0 0 0 0 127 0" result="hardAlpha"/>
<feOffset dy="4"/>
<feGaussianBlur stdDeviation="2"/>
<feComposite in2="hardAlpha" operator="out"/>
<feColorMatrix type="matrix" values="0 0 0 0 0 0 0 0 0 0 0 0 0 0 0 0 0 0 0.25 0"/>
<feBlend mode="normal" in2="BackgroundImageFix" result="effect1_dropShadow_394_170"/>
<feBlend mode="normal" in="SourceGraphic" in2="effect1_dropShadow_394_170" result="shape"/>
</filter>
<filter id="filter1_d_394_170" x="0" y="433" width="359.979" height="282.016" filterUnits="userSpaceOnUse" color-interpolation-filters="sRGB">
<feFlood flood-opacity="0" result="BackgroundImageFix"/>
<feColorMatrix in="SourceAlpha" type="matrix" values="0 0 0 0 0 0 0 0 0 0 0 0 0 0 0 0 0 0 127 0" result="hardAlpha"/>
<feOffset dy="4"/>
<feGaussianBlur stdDeviation="2"/>
<feComposite in2="hardAlpha" operator="out"/>
<feColorMatrix type="matrix" values="0 0 0 0 0 0 0 0 0 0 0 0 0 0 0 0 0 0 0.25 0"/>
<feBlend mode="normal" in2="BackgroundImageFix" result="effect1_dropShadow_394_170"/>
<feBlend mode="normal" in="SourceGraphic" in2="effect1_dropShadow_394_170" result="shape"/>
</filter>
</defs>
</svg>
