<svg width="340" height="594" viewBox="0 0 340 594" fill="none" xmlns="http://www.w3.org/2000/svg">
<rect x="47.9629" y="171.928" width="214.544" height="28.438" fill="white"/>
<ellipse cx="263.576" cy="154.88" rx="43.653" ry="45.4854" fill="white"/>
<ellipse cx="63.2271" cy="68.1415" rx="40.2271" ry="41.8521" fill="white"/>
<ellipse cx="183.859" cy="39.974" rx="44.6108" ry="39.9741" fill="white"/>
<ellipse cx="256.611" cy="63.1087" rx="44.6108" ry="39.9741" fill="white"/>
<ellipse cx="275.533" cy="136.63" rx="63.4681" ry="78.5621" fill="white"/>
<ellipse cx="157.482" cy="121.486" rx="105.541" ry="70.819" fill="white"/>
<ellipse cx="109.541" cy="216.819" rx="105.541" ry="70.819" fill="white"/>
<ellipse cx="263.819" cy="226.541" rx="105.541" ry="70.819" transform="rotate(90 263.819 226.541)" fill="white"/>
<ellipse cx="118.987" cy="55.1461" rx="36.1012" ry="33.267" fill="white"/>
<ellipse cx="109.372" cy="126.227" rx="43.0636" ry="37.5596" fill="white"/>
<ellipse cx="46.9685" cy="145.668" rx="46.9685" ry="54.6976" fill="white"/>
<rect width="214.544" height="28.462" transform="matrix(1 0 0 -1 51.9629 421.82)" fill="white"/>
<ellipse cx="54.4012" cy="56.7494" rx="54.4012" ry="56.7494" transform="matrix(1 0 0 -1 231.176 492.499)" fill="white"/>
<ellipse cx="40.2271" cy="41.8875" rx="40.2271" ry="41.8875" transform="matrix(1 0 0 -1 34.9434 561.624)" fill="white"/>
<ellipse cx="44.6108" cy="40.0079" rx="44.6108" ry="40.0079" transform="matrix(1 0 0 -1 143.247 593.894)" fill="white"/>
<ellipse cx="44.6108" cy="40.0079" rx="44.6108" ry="40.0079" transform="matrix(1 0 0 -1 202.925 565.081)" fill="white"/>
<ellipse cx="45.8633" cy="42.6426" rx="45.8633" ry="42.6426" transform="matrix(1 0 0 -1 242.71 539.726)" fill="white"/>
<ellipse cx="105.541" cy="70.879" rx="105.541" ry="70.879" transform="matrix(1 0 0 -1 55.9414 543.184)" fill="white"/>
<ellipse cx="105.541" cy="70.879" rx="105.541" ry="70.879" transform="matrix(1 0 0 -1 3 438.758)" fill="white"/>
<ellipse cx="105.541" cy="70.879" rx="105.541" ry="70.879" transform="matrix(-4.37114e-08 -1 -1 4.37114e-08 142.758 393.082)" fill="white"/>
<ellipse cx="76.5" cy="71" rx="76.5" ry="71" transform="matrix(-4.37114e-08 -1 -1 4.37114e-08 334 370)" fill="white"/>
<ellipse cx="105.541" cy="70.879" rx="105.541" ry="70.879" transform="matrix(-4.37114e-08 -1 -1 4.37114e-08 250.758 397.082)" fill="white"/>
<ellipse cx="105.541" cy="70.879" rx="105.541" ry="70.879" transform="matrix(1 0 0 -1 128 429.758)" fill="white"/>
<ellipse cx="36.1012" cy="33.2952" rx="36.1012" ry="33.2952" transform="matrix(1 0 0 -1 86.8857 571.996)" fill="white"/>
<ellipse cx="43.0636" cy="37.5914" rx="43.0636" ry="37.5914" transform="matrix(1 0 0 -1 70.3076 505.151)" fill="white"/>
<ellipse cx="46.9685" cy="54.7439" rx="46.9685" ry="54.7439" transform="matrix(1 0 0 -1 4 502.846)" fill="white"/>
</svg>
