<svg width="341" height="534" viewBox="0 0 341 534" fill="none" xmlns="http://www.w3.org/2000/svg">
<rect x="47.9629" y="171.928" width="214.544" height="28.438" fill="white"/>
<ellipse cx="263.576" cy="154.88" rx="43.653" ry="45.4854" fill="white"/>
<ellipse cx="63.2271" cy="68.1415" rx="40.2271" ry="41.8521" fill="white"/>
<ellipse cx="183.859" cy="39.974" rx="44.6108" ry="39.9741" fill="white"/>
<ellipse cx="256.611" cy="63.1087" rx="44.6108" ry="39.9741" fill="white"/>
<ellipse cx="275.533" cy="136.63" rx="63.4681" ry="78.5621" fill="white"/>
<ellipse cx="157.482" cy="121.486" rx="105.541" ry="70.819" fill="white"/>
<ellipse cx="109.541" cy="216.819" rx="105.541" ry="70.819" fill="white"/>
<ellipse cx="234.541" cy="227.819" rx="105.541" ry="70.819" fill="white"/>
<ellipse cx="118.987" cy="55.1461" rx="36.1012" ry="33.267" fill="white"/>
<ellipse cx="109.372" cy="126.227" rx="43.0636" ry="37.5596" fill="white"/>
<ellipse cx="46.9685" cy="145.668" rx="46.9685" ry="54.6976" fill="white"/>
<rect width="214.544" height="28.462" transform="matrix(1 0 0 -1 51.9629 361.82)" fill="white"/>
<ellipse cx="54.4012" cy="56.7494" rx="54.4012" ry="56.7494" transform="matrix(1 0 0 -1 231.176 432.499)" fill="white"/>
<ellipse cx="40.2271" cy="41.8875" rx="40.2271" ry="41.8875" transform="matrix(1 0 0 -1 34.9434 501.624)" fill="white"/>
<ellipse cx="44.6108" cy="40.0079" rx="44.6108" ry="40.0079" transform="matrix(1 0 0 -1 143.247 533.894)" fill="white"/>
<ellipse cx="44.6108" cy="40.0079" rx="44.6108" ry="40.0079" transform="matrix(1 0 0 -1 202.925 505.081)" fill="white"/>
<ellipse cx="45.8633" cy="42.6426" rx="45.8633" ry="42.6426" transform="matrix(1 0 0 -1 242.71 479.726)" fill="white"/>
<ellipse cx="105.541" cy="70.879" rx="105.541" ry="70.879" transform="matrix(1 0 0 -1 55.9414 483.184)" fill="white"/>
<ellipse cx="105.541" cy="70.879" rx="105.541" ry="70.879" transform="matrix(1 0 0 -1 3 378.758)" fill="white"/>
<ellipse cx="105.541" cy="70.879" rx="105.541" ry="70.879" transform="matrix(1 0 0 -1 128 369.758)" fill="white"/>
<ellipse cx="36.1012" cy="33.2952" rx="36.1012" ry="33.2952" transform="matrix(1 0 0 -1 86.8857 511.996)" fill="white"/>
<ellipse cx="43.0636" cy="37.5914" rx="43.0636" ry="37.5914" transform="matrix(1 0 0 -1 70.3076 445.151)" fill="white"/>
<ellipse cx="46.9685" cy="54.7439" rx="46.9685" ry="54.7439" transform="matrix(1 0 0 -1 4 442.846)" fill="white"/>
</svg>
